<svg xmlns="http://www.w3.org/2000/svg" width="2800" height="2800" viewBox="400 400 2000 2000"><path d="M13681 9992q-141-25-246-186a687 687 0 0 1-110-368q8-166 142-139 139 43 232 235z" style="fill:#4d4f51;fill-opacity:1;fill-rule:evenodd;stroke:none" transform="matrix(.13333 0 0 -.13333 0 2800)"/><path d="m9837 10027-1325-432a7601 7601 0 0 1-696-280q-841-429-959-704-16-177 376-267 478-136 1183-73 924 161 1263 771z" style="fill:#caccce;fill-opacity:1;fill-rule:evenodd;stroke:none" transform="matrix(.13333 0 0 -.13333 0 2800)"/><path d="M10020 9661q-1421-380-2519-938-814-473-908-1011-44-378 401-301 129 20 345 95 939 383 1218 451 204 58 448 113 682 96 859 164z" style="fill:#caccce;fill-opacity:1;fill-rule:evenodd;stroke:none" transform="matrix(.13333 0 0 -.13333 0 2800)"/><path d="M9694 8777q-171 66-1375-427-714-305-826-495-108-189 298-186 333 42 883 163 240 52 514 143z" style="fill:#caccce;fill-opacity:1;fill-rule:evenodd;stroke:none" transform="matrix(.13333 0 0 -.13333 0 2800)"/><path d="M8426 9103q-504 96-1563-164a1792 1792 0 0 1-910-607 1806 1806 0 0 1-336-722q-70-375 89-486 630-287 1463 343z" style="fill:#caccce;fill-opacity:1;fill-rule:evenodd;stroke:none" transform="matrix(.13333 0 0 -.13333 0 2800)"/><path d="M5888 8244a3719 3719 0 0 1-714-1060q-205-906 96-1116 327-246 923 271 235 197 376 447 27 2 265 641z" style="fill:#caccce;fill-opacity:1;fill-rule:evenodd;stroke:none" transform="matrix(.13333 0 0 -.13333 0 2800)"/><path d="M5119 6279q182-321 626-333 390 5 699 286 117 94 278 325l426 738q100 162 433 653 45 66 100 182 50 130-85 124a572 572 0 0 1-347-145z" style="fill:#caccce;fill-opacity:1;fill-rule:evenodd;stroke:none" transform="matrix(.13333 0 0 -.13333 0 2800)"/><path d="M5741 6085q366-212 714 73 87 70 210 226 582 846 617 848 84 93 191 194 595 502 721 651 221 305-67 326-162 8-499-135-147-54-258-183z" style="fill:#caccce;fill-opacity:1;fill-rule:evenodd;stroke:none" transform="matrix(.13333 0 0 -.13333 0 2800)"/><path d="M7000 7529q-127-141-104-241 24-112 176-120 230-13 694 326 395 299 531 567 113 225-24 395zm-11 553q-175-90-349-346-68-103-88-183-17-63 14-122zm2101 8145q-66 6-256-649-139-538-180-915-122-1040 73-1490 153-405 368-563 297-220 448-67 173 139 249 607 99 495 59 1024z" style="fill:#caccce;fill-opacity:1;fill-rule:evenodd;stroke:none" transform="matrix(.13333 0 0 -.13333 0 2800)"/><path d="M9380 16725a1112 1112 0 0 1-188-497q-68-425 9-614 29-89 104-175 421-404 500-512 133-168 238-347 224-345 530-1274 149-113 180 436 1 908-113 1219-87 276-228 462-48 92-516 574a4256 4256 0 0 0-255 337zm-2013-3817q-559 274-776 787-241 508-289 807-77 474 21 642 418-138 1055-899 705-888 726-1260z" style="fill:#caccce;fill-opacity:1;fill-rule:evenodd;stroke:none" transform="matrix(.13333 0 0 -.13333 0 2800)"/><path d="M6487 14408q-111 232-154 503-33 244 8 398 56 95 144 39 28-20 72-72 153-203 180-233z" style="fill:#caccce;fill-opacity:1;fill-rule:evenodd;stroke:none" transform="matrix(.13333 0 0 -.13333 0 2800)"/><path d="M8616 9765q4 16 185 94 621 251 875 362 29 9 274 135l-195-155a7166 7166 0 0 0-465-439l-520-392q301 62 389 58 53 12 520-39 115-6 262 14 193 19 433 188 190 152 293 344 53 57 32 254-61 672-440 834z" style="fill:#606264;fill-opacity:1;fill-rule:evenodd;stroke:none" transform="matrix(.13333 0 0 -.13333 0 2800)"/><path d="M10058 9630q-132-118-306-195-37-24-969-383-21-8-22-20 382-25 521-73 118-27 525-236 115-49 268-90 223-47 441-24 186-7 259 433 60 405-58 696z" style="fill:#606264;fill-opacity:1;fill-rule:evenodd;stroke:none" transform="matrix(.13333 0 0 -.13333 0 2800)"/><path d="M10596 10886a2455 2455 0 0 1-77-1261q47-259 227-541 123-158 262-145 112 25 203 191a837 837 0 0 1 96 379q-36 473-115 770-61 257-257 675zm-605-1805q94-425 214-593 168-265 358-285 117 8 157 262 10 83 4 198l-46 458z" style="fill:#606264;fill-opacity:1;fill-rule:evenodd;stroke:none" transform="matrix(.13333 0 0 -.13333 0 2800)"/><path d="M10241 8931q-750-45-1474-319 2-3 27-6 119-1 198-13 89-13 168-35 101-28 237-79 449-181 501-192 231-75 361-85 238-35 386 253z" style="fill:#606264;fill-opacity:1;fill-rule:evenodd;stroke:none" transform="matrix(.13333 0 0 -.13333 0 2800)"/><path d="M10180 8398q13-4-287-17-630-9-768-21-185-9-375-46-268-25-1131-412 605 238 1205 160 238-25 495-105 225-67 622-244 175-64 270-91 242-65 426-53 429 35 138 488z" style="fill:#606264;fill-opacity:1;fill-rule:evenodd;stroke:none" transform="matrix(.13333 0 0 -.13333 0 2800)"/><path d="m10580 7638-443 51q-142 21-566 104-156 25-253 30-367 22-834-67 300-33 794-198 188-59 1001-410 138-57 246-90 153-54 335-30zm-465 2501q-849-345-1171-447-237-69-761-247-480-129-593-150 1082 629 1493 803 155 94 1130 417z" style="fill:#606264;fill-opacity:1;fill-rule:evenodd;stroke:none" transform="matrix(.13333 0 0 -.13333 0 2800)"/><path d="M8492 9603q-406-132-906-283-113-34-177-45-149-35-368 46z" style="fill:#606264;fill-opacity:1;fill-rule:evenodd;stroke:none" transform="matrix(.13333 0 0 -.13333 0 2800)"/><path d="M8405 9537q-661-236-664-230-136-42-391-84-127-13-253 14-201 61-321 128z" style="fill:#606264;fill-opacity:1;fill-rule:evenodd;stroke:none" transform="matrix(.13333 0 0 -.13333 0 2800)"/><path d="M9358 10014q-463-334-1563-780a1554 1554 0 0 0-902-46z" style="fill:#606264;fill-opacity:1;fill-rule:evenodd;stroke:none" transform="matrix(.13333 0 0 -.13333 0 2800)"/><path d="m9580 9919-1420-595q-282-108-669-175-464-52-838 44-375 123-294 297z" style="fill:#606264;fill-opacity:1;fill-rule:evenodd;stroke:none" transform="matrix(.13333 0 0 -.13333 0 2800)"/><path d="M7003 9246q369-90 894-140a1514 1514 0 0 1 377 25q37 5 208 45 8 1 8-2-136-121-574-237-111-28-301-51-789-47-874-78-212-31-519-193 357 787 807 865z" style="fill:#606264;fill-opacity:1;fill-rule:evenodd;stroke:none" transform="matrix(.13333 0 0 -.13333 0 2800)"/><path d="M6933 9344q-48-27-210-177z" style="fill:#606264;fill-opacity:1;fill-rule:evenodd;stroke:none" transform="matrix(.13333 0 0 -.13333 0 2800)"/><path d="M6974 9344q-868-216-1551-1248 408 966 1395 1406z" style="fill:#606264;fill-opacity:1;fill-rule:evenodd;stroke:none" transform="matrix(.13333 0 0 -.13333 0 2800)"/><path d="M6759 9533q-792-833-1422-2354 345 722 845 1266 159 178 328 304 204 143 491 294 48 29 123 90z" style="fill:#606264;fill-opacity:1;fill-rule:evenodd;stroke:none" transform="matrix(.13333 0 0 -.13333 0 2800)"/><path d="M6786 9512a4683 4683 0 0 1-653-855q-208-313-562-1009-92-161-214-338a1915 1915 0 0 0-422-442q-698-520-191 468a6193 6193 0 0 0 1405 1695z" style="fill:#606264;fill-opacity:1;fill-rule:evenodd;stroke:none" transform="matrix(.13333 0 0 -.13333 0 2800)"/><path d="M5858 8152q-663-1064-776-1535-26-143 76-270 19-20 66-42l346-146q32-15 20-27-226 10-529 199-329 201-389 373-66 163 57 421 137 261 374 455z" style="fill:#606264;fill-opacity:1;fill-rule:evenodd;stroke:none" transform="matrix(.13333 0 0 -.13333 0 2800)"/><path d="M5991 8411q-593-1070-806-1493-98-212-149-374-21-106 15-177-29 318 148 750 192 516 450 827z" style="fill:#606264;fill-opacity:1;fill-rule:evenodd;stroke:none" transform="matrix(.13333 0 0 -.13333 0 2800)"/><path d="M4949 6931q-28-489 465-628 322-94 673 58 204 82 338 183 51 27 346 310 45 7-77-138-136-155-228-225-516-444-1043-381a964 964 0 0 0-479 189q-234 196-263 411z" style="fill:#606264;fill-opacity:1;fill-rule:evenodd;stroke:none" transform="matrix(.13333 0 0 -.13333 0 2800)"/><path d="M4554 6807q101-333 420-558 440-269 749-218 311 54 551 230 322 272 526 618-553-519-1156-531-334 3-554 128a450 450 0 0 0-222 372z" style="fill:#606264;fill-opacity:1;fill-rule:evenodd;stroke:none" transform="matrix(.13333 0 0 -.13333 0 2800)"/><path d="M6370 6437q299 243 367 320l568 651 353 349q5 32-336-262-108-87-692-652a5617 5617 0 0 0-440-365q-334-232-649-226z" style="fill:#606264;fill-opacity:1;fill-rule:evenodd;stroke:none" transform="matrix(.13333 0 0 -.13333 0 2800)"/><path d="M5621 6258q219 56 522 205 183 81 475 286-66-81-291-226-138-86-249-112zm4457 1486q-843 290-1322 230-736-111-1217-527-1-9 15-3 228 86 374 125 152 40 289 64 261 51 640 52 673-11 1093-272z" style="fill:#606264;fill-opacity:1;fill-rule:evenodd;stroke:none" transform="matrix(.13333 0 0 -.13333 0 2800)"/><path d="M8076 7731q-496-220-698-420-260-241-535-746z" style="fill:#606264;fill-opacity:1;fill-rule:evenodd;stroke:none" transform="matrix(.13333 0 0 -.13333 0 2800)"/><path d="M8103 7753q-616-261-805-477-293-299-552-852zM4897 6396q242-308 722-447 270-75 421-74 115-7 328 82-189-88-373-139-424-119-816 17-260 81-567 483z" style="fill:#606264;fill-opacity:1;fill-rule:evenodd;stroke:none" transform="matrix(.13333 0 0 -.13333 0 2800)"/><path d="M5624 5797q665 145 1065 620a1499 1499 0 0 0-895-724z" style="fill:#606264;fill-opacity:1;fill-rule:evenodd;stroke:none" transform="matrix(.13333 0 0 -.13333 0 2800)"/><path d="M5365 6020q54-33 209-55 183-21 288-6 207 33 343 74 58 18 98 38l170 88a1143 1143 0 0 0-884-399z" style="fill:#606264;fill-opacity:1;fill-rule:evenodd;stroke:none" transform="matrix(.13333 0 0 -.13333 0 2800)"/><path d="M5989 5901q246 120 421 284 135 129 188 189l320 381q-137-335-397-649a905 905 0 0 0-419-297zm384 8447q211-683 727-1105 183-142 253-123 166 45 282 201 18 11 30-16 44-182-1-333-34-109-136-112a826 826 0 0 0-636 413z" style="fill:#606264;fill-opacity:1;fill-rule:evenodd;stroke:none" transform="matrix(.13333 0 0 -.13333 0 2800)"/><path d="M7571 13079q-186 71-387 365-70 104-144 255-43 81-205 454-8 22-77 146 0 6 18-12 156-177 190-206 206-183 356-338z" style="fill:#606264;fill-opacity:1;fill-rule:evenodd;stroke:none" transform="matrix(.13333 0 0 -.13333 0 2800)"/><path d="M6924 14050q-65 81-140 195l-111 177q-3 5 2 5 289-219 472-439z" style="fill:#606264;fill-opacity:1;fill-rule:evenodd;stroke:none" transform="matrix(.13333 0 0 -.13333 0 2800)"/><path d="M6647 14446q61-20 106-53 89-60 353-270-41 46-135 230l-163 409q127-116 355-365 382-436 495-801 42-92-38-96-109 6-204 95z" style="fill:#606264;fill-opacity:1;fill-rule:evenodd;stroke:none" transform="matrix(.13333 0 0 -.13333 0 2800)"/><path d="M6298 15554q3-136 208-553l427-667q87-124 116-156 86-100 176-154 48-30 77 8 55 123-74 436z" style="fill:#606264;fill-opacity:1;fill-rule:evenodd;stroke:none" transform="matrix(.13333 0 0 -.13333 0 2800)"/><path d="M6499 15546q-48-105-92-375-39-279-31-466a2369 2369 0 0 1 76-525q13-55 61-211 3-12 0-10-89 129-168 390-84 277-106 509-20 165 16 382 32 157 110 295zm1088-2334q-274 15-585 169-181 83-441 372 77-164 346-434 150-147 338-233 395-180 576 110z" style="fill:#606264;fill-opacity:1;fill-rule:evenodd;stroke:none" transform="matrix(.13333 0 0 -.13333 0 2800)"/><path d="M6363 14339q171-620 557-869a883 883 0 0 1 407-161q72 0 140 28 54 20 191 120 9 5 12-7-9-417-423-308-511 168-688 601z" style="fill:#606264;fill-opacity:1;fill-rule:evenodd;stroke:none" transform="matrix(.13333 0 0 -.13333 0 2800)"/><path d="M7387 13142a560 560 0 0 0-270 269q-47 88-87 216-4 0-68 256-15 57-46 152-4 15 19-14 7-15 330-399zm2927-938q-616-216-1032 573a2666 2666 0 0 0-253 907q-29 423 94 818z" style="fill:#606264;fill-opacity:1;fill-rule:evenodd;stroke:none" transform="matrix(.13333 0 0 -.13333 0 2800)"/><path d="M8796 15321q-50 29-149-625-21-45-1-641 71-570 314-994 110-274 606-616 98-60 348-143-21-12 603-116 44-15 36-46-342-622-1202 91a2403 2403 0 0 0-671 800 1729 1729 0 0 0-203 809zm715 313q327-143 656-602 264-423 474-1008-3 394-282 1284-106 362-351 725 409-475 584-938 277-651 289-1480-30-780-304-683z" style="fill:#606264;fill-opacity:1;fill-rule:evenodd;stroke:none" transform="matrix(.13333 0 0 -.13333 0 2800)"/><path d="M10582 14016q75 338-268 1187a4996 4996 0 0 1-283 615q-40 69-105 161-76 106-216 276-15 18-7 17 228-149 722-1049 301-603 442-1252z" style="fill:#606264;fill-opacity:1;fill-rule:evenodd;stroke:none" transform="matrix(.13333 0 0 -.13333 0 2800)"/><path d="M9255 16780q623-872 619-902 114-198 201-368l710-1394q69 43-10 463-79 347-276 758a4804 4804 0 0 1-936 1355z" style="fill:#606264;fill-opacity:1;fill-rule:evenodd;stroke:none" transform="matrix(.13333 0 0 -.13333 0 2800)"/><path d="M9166 16701q213-193 527-618 303-387 981-1481 46-57 46 8-80 482-605 1303-657 1044-931 1142z" style="fill:#606264;fill-opacity:1;fill-rule:evenodd;stroke:none" transform="matrix(.13333 0 0 -.13333 0 2800)"/><path d="M9494 17044q-33-343-81-441-31-98-169-401-247-500-324-691-78-175-177-540 0 162 144 680 107 339 244 643z" style="fill:#606264;fill-opacity:1;fill-rule:evenodd;stroke:none" transform="matrix(.13333 0 0 -.13333 0 2800)"/><path d="M11255 9318q-108 241-398 727a895 895 0 0 1-839 372q-155-18-289-58-139-39-345-142-30-7-30 4 132 207 476 366 415 183 660 167 515-1 707-576zM8861 7732q237 98 1223-113 55-12-467 386-81 57-156 95-95 50-173 74-10 5 0 6 546-29 832-201 669-380 576-1283z" style="fill:#4d4f51;fill-opacity:1;fill-rule:evenodd;stroke:none" transform="matrix(.13333 0 0 -.13333 0 2800)"/><path d="m9368 8210 632-44q84-6 165-19 204-37 337-120a449 449 0 0 0 213-256q59-226-21-349z" style="fill:#4d4f51;fill-opacity:1;fill-rule:evenodd;stroke:none" transform="matrix(.13333 0 0 -.13333 0 2800)"/><path d="M10238 7554q-591 434-641 450-70 43-159 79-34 17-230 73-22 7-18 13 129 71 519 65 239-5 729-113z" style="fill:#4d4f51;fill-opacity:1;fill-rule:evenodd;stroke:none" transform="matrix(.13333 0 0 -.13333 0 2800)"/><path d="M10399 7578a2950 2950 0 0 1-862 248q-355 51-856-21-2-7 13-10 319-58 457-99 206-57 355-119 320-133 582-344z" style="fill:#4d4f51;fill-opacity:1;fill-rule:evenodd;stroke:none" transform="matrix(.13333 0 0 -.13333 0 2800)"/><path d="M10183 7645q-45 83-64 299-6 67-10 166-10 491-20 569-2 94-51 443-1 31 14 36 461-342 653-660 181-289 190-723z" style="fill:#4d4f51;fill-opacity:1;fill-rule:evenodd;stroke:none" transform="matrix(.13333 0 0 -.13333 0 2800)"/><path d="M10541 8073q-124 314-117 794-1 161 66 545 80 466 105 503 10 0 13-12 33-182 194-595 57-159 314-673 47-105 104-280zm-6 2354q176-151 292-454 38-107 61-216 84-548 137-711 78-270 212-549 9-1 2 94-70 942-101 1230-29 308-98 572z" style="fill:#4d4f51;fill-opacity:1;fill-rule:evenodd;stroke:none" transform="matrix(.13333 0 0 -.13333 0 2800)"/><path d="M9527 10232a752 752 0 0 0 500 234q213 5 315-211 69-143 65-359-3-68-17-137-102-426-99-490-18-177 3-401-5-189 253-759 60 279 109 342 6 41 272 300 70 84 116 194 91 202 91 532-61 996-597 1073zm-383 2298q314-372 477-219 154 161-77 595 564-425 667-617 105-161 75-307-44-158-177-167-105-17-339 103-346 177-429 304z" style="fill:#4d4f51;fill-opacity:1;fill-rule:evenodd;stroke:none" transform="matrix(.13333 0 0 -.13333 0 2800)"/><path d="M9831 12495q-15-252-223-222-75 11-166 66-82 48-315 256-59 43-56 14 57-151 334-374 223-171 388-188zm-2631 1321q128-330 128-358 25-95 2-164-39-94-125-99-42-13-293 71-28-4 48-89 336-334 607-286 154 34 184 175 21 80-102 251z" style="fill:#4d4f51;fill-opacity:1;fill-rule:evenodd;stroke:none" transform="matrix(.13333 0 0 -.13333 0 2800)"/><path d="M7105 13943q-24-76 118-503 54-157 160-277 131-133 282-161 155-17 220 98z" style="fill:#4d4f51;fill-opacity:1;fill-rule:evenodd;stroke:none" transform="matrix(.13333 0 0 -.13333 0 2800)"/><path d="M7736 12798q-551-452-741-1283-82-383 20-537 129-190 343-81 184 51 544 433 90 75 591 993 45 66 103 137 230 238 252 289 35 62-39 126-237 203-309 231z" style="fill:#0077b5;fill-opacity:1;fill-rule:evenodd;stroke:none" transform="matrix(.13333 0 0 -.13333 0 2800)"/><path d="M7455 12616q-304-177-623-856-243-504-183-980 57-429 359-315 414 172 665 677z" style="fill:#0077b5;fill-opacity:1;fill-rule:evenodd;stroke:none" transform="matrix(.13333 0 0 -.13333 0 2800)"/><path d="M7318 12462q-33 37-325-367c-136-188-287-375-361-531-47-88-91-340-224-787q-97-318-74-404 38-226 181-260 346 54 540 200a641 641 0 0 1 210 262q50 84 185 624z" style="fill:#0077b5;fill-opacity:1;fill-rule:evenodd;stroke:none" transform="matrix(.13333 0 0 -.13333 0 2800)"/><path d="M6822 10826q-55-93-94-274-59-300-52-399 3-219 169-163 110 42 244 290 40 78 76 172 203 568 222 593zm2245 1204q-169 34-558-224-330-224-438-440-135-253-54-445a399 399 0 0 1 327-255q429-67 1082 237 261 123 400 218 285 195 687 506 51 37 197 88 13 13-9 24z" style="fill:#0077b5;fill-opacity:1;fill-rule:evenodd;stroke:none" transform="matrix(.13333 0 0 -.13333 0 2800)"/><path d="M8663 12046q-232-1-556-289-232-224-178-393 33-84 145-148 78-42 206-44 201-12 623 175zm2316-183q-129 75-659-128-318-122-344-275-12-78 53-138 84-65 211-73 119-3 245 29 89 22 385 137z" style="fill:#0077b5;fill-opacity:1;fill-rule:evenodd;stroke:none" transform="matrix(.13333 0 0 -.13333 0 2800)"/><path d="M10948 11552q-180 32-871-105-556-108-923-261-530-209-896-779-182-293-99-382 50-120 333-39 531 164 788 293 260 108 981 566 231 123 341 154z" style="fill:#0077b5;fill-opacity:1;fill-rule:evenodd;stroke:none" transform="matrix(.13333 0 0 -.13333 0 2800)"/><path d="M10856 10964q-40 27-260-54-90-23-555-271-104-48-188-67-128-31-260-14-131 21-163 73-39 158 366 324 525 202 960 195z" style="fill:#0077b5;fill-opacity:1;fill-rule:evenodd;stroke:none" transform="matrix(.13333 0 0 -.13333 0 2800)"/><path d="M10086 10771q-472-423-875-568a817 817 0 0 0-309-69q-178-1-226 71zm1191-615q12-55 20-322 6-737 19-896 31-479 81-731 74-363 215-712 79-146 184-82 89 33 215 549 93 371 146 1011 30 336 1 933-8 239-110 801z" style="fill:#0077b5;fill-opacity:1;fill-rule:evenodd;stroke:none" transform="matrix(.13333 0 0 -.13333 0 2800)"/><path d="M11712 11436q116-1273 455-2119 325-920 532-506 163 345 247 932 63 559-49 1033-234 866-957 1137z" style="fill:#0077b5;fill-opacity:1;fill-rule:evenodd;stroke:none" transform="matrix(.13333 0 0 -.13333 0 2800)"/><path d="M11903 12230q33-149 686-1301 532-951 610-990 281-276 294 870-25 1120-381 1489-477 536-1214 416z" style="fill:#0077b5;fill-opacity:1;fill-rule:evenodd;stroke:none" transform="matrix(.13333 0 0 -.13333 0 2800)"/><path d="M11185 12840q104 290 658 568 532 234 1058 229 481 8 1045-214 716-271 1023-589 217-198 112-549-76-231-479-401-687-370-2331-231z" style="fill:#0077b5;fill-opacity:1;fill-rule:evenodd;stroke:none" transform="matrix(.13333 0 0 -.13333 0 2800)"/><path d="M11021 13675q471 505 1163 582 340 35 694-73 318-102 416-275 165-316-438-538-537-169-1614-94z" style="fill:#0077b5;fill-opacity:1;fill-rule:evenodd;stroke:none" transform="matrix(.13333 0 0 -.13333 0 2800)"/><path d="M13060 13600q136 16 393-20 862-143 1270-225 191-34 621-71 23-4 23-13-31-163-839-433-411-134-999-149zm-1870 182q-140 348 16 576 73 129 199 218a886 886 0 0 0 349 157q137 16 243-80 102-96 99-236-5-116-81-235-41-67-293-334z" style="fill:#0077b5;fill-opacity:1;fill-rule:evenodd;stroke:none" transform="matrix(.13333 0 0 -.13333 0 2800)"/><path d="M10947 13951q-47 345 263 598 208 171 465 278 143 64 392 79 93 10 113-86 19-114-49-308-47-130-107-220 2-12-293-340z" style="fill:#0077b5;fill-opacity:1;fill-rule:evenodd;stroke:none" transform="matrix(.13333 0 0 -.13333 0 2800)"/><path d="M11795 14179q74 342 479 327 245-9 394-42 1053-302 1076-275 48-12-206-161-509-321-590-339-190-102-696-131z" style="fill:#0077b5;fill-opacity:1;fill-rule:evenodd;stroke:none" transform="matrix(.13333 0 0 -.13333 0 2800)"/><path d="M7649 10634q337 305 671 406 225 98 1161 158-285-101-493-306-91-86-147-153-455-589-637-785a2066 2066 0 0 0-469-359z" style="fill:#0b4971;fill-opacity:1;fill-rule:evenodd;stroke:none" transform="matrix(.13333 0 0 -.13333 0 2800)"/><path d="M7781 9744q118 153 342 279 68 36 193 93 545 226 735 319 154 72 372 214 12 3-7-24-770-982-1814-1158zm3250 1507q-133 200-639 288-165 20-377-7-222-33-523-118 104 0 269-15 70-8 133-23l882-302q96-34 143-44z" style="fill:#0b4971;fill-opacity:1;fill-rule:evenodd;stroke:none" transform="matrix(.13333 0 0 -.13333 0 2800)"/><path d="M11069 11142q-258 137-730 61-182-12-1024-380 414 149 1123 36 345-40 630-270zm-18 213q-121 120-480 256-448 146-571 142-153 28-508 12-120-10-409-45-204-27-423-69-10-1-15 3-14 9 13 32l344 324q148 102 265 103 153 7 352-55 74-16 836-296zm-2446 1893a7527 7527 0 0 1-826-1215q210 204 482 372 78 65 576 274 88 47 100 66 31 35 4 84a2879 2879 0 0 0-226 323z" style="fill:#0b4971;fill-opacity:1;fill-rule:evenodd;stroke:none" transform="matrix(.13333 0 0 -.13333 0 2800)"/><path d="M8785 12747q-703-609-1452-2027 376 524 972 947 228 138 570 275 592 182 657 171 14 13-33 57l-538 541z" style="fill:#0b4971;fill-opacity:1;fill-rule:evenodd;stroke:none" transform="matrix(.13333 0 0 -.13333 0 2800)"/><path d="M8779 13121q93-233 347-532 343-405 638-628-267 54-646 376a1388 1388 0 0 0-360 543zm-114-106q-299-35-721-284a2498 2498 0 0 1-624-521q-12-11-16-5 146 283 594 637 408 315 709 374zm-2151-1764q70 307 322 658 81 133 550 535 105 125 166 257 12 88-201-32-198-130-345-288a1755 1755 0 0 1-361-656z" style="fill:#0b4971;fill-opacity:1;fill-rule:evenodd;stroke:none" transform="matrix(.13333 0 0 -.13333 0 2800)"/><path d="M7603 12625q-31-28-145-177zm-82 16a4379 4379 0 0 1-676-796 3264 3264 0 0 1-399-804q-23 48 46 305 75 267 159 446 180 361 449 601z" style="fill:#0b4971;fill-opacity:1;fill-rule:evenodd;stroke:none" transform="matrix(.13333 0 0 -.13333 0 2800)"/><path d="M7336 12668q-113-272-143-462-59-306-59-640 175 479 376 759 307 450 568 642zm-675-1002a7677 7677 0 0 1-258-686q-77-247-71-475 9-228 124-299 44-28 96-13 68 27 140 103 14 7 7-12-245-495-419-336a424 424 0 0 0-98 295q29 290 119 435z" style="fill:#0b4971;fill-opacity:1;fill-rule:evenodd;stroke:none" transform="matrix(.13333 0 0 -.13333 0 2800)"/><path d="M6340 10059q26 48 35 60 36 49 59 76z" style="fill:#0b4971;fill-opacity:1;fill-rule:evenodd;stroke:none" transform="matrix(.13333 0 0 -.13333 0 2800)"/><path d="M6318 10387q78-141 185-125 48 10 100 64 32 33 91 142-52-245-144-419a718 718 0 0 0-187-248z" style="fill:#0b4971;fill-opacity:1;fill-rule:evenodd;stroke:none" transform="matrix(.13333 0 0 -.13333 0 2800)"/><path d="M6339 10166q-32 179 25 426 20 87 38 145a9074 9074 0 0 1 235 768q-76-151-312-786-93-267-118-470zm1570 1429q-615-609-811-1618z" style="fill:#0b4971;fill-opacity:1;fill-rule:evenodd;stroke:none" transform="matrix(.13333 0 0 -.13333 0 2800)"/><path d="M7751 11273q139 102 385 149 173 31 525 25a797 797 0 0 1-364-183q-73-62-134-132a4370 4370 0 0 0-296-357 980 980 0 0 0-218-174q-129-70-247 7-49 40 68 178z" style="fill:#0b4971;fill-opacity:1;fill-rule:evenodd;stroke:none" transform="matrix(.13333 0 0 -.13333 0 2800)"/><path d="M7790 11317q156 74 481 135 198 28 425-5-162-60-448-251-316-211-389-322z" style="fill:#0b4971;fill-opacity:1;fill-rule:evenodd;stroke:none" transform="matrix(.13333 0 0 -.13333 0 2800)"/><path d="M8582 11401a916 916 0 0 1-360-274 3242 3242 0 0 1-349-580q-40 2-13 170 14 89 81 212a943 943 0 0 0 345 357z" style="fill:#0b4971;fill-opacity:1;fill-rule:evenodd;stroke:none" transform="matrix(.13333 0 0 -.13333 0 2800)"/><path d="M7855 11311q102 57 365 125 173 39 192 39 204 14 411 45 49 6 211 63-28-24-139-84-281-135-392-198-12-4-153-104a1022 1022 0 0 1-295-310zm1751 458q262 65 572-50 269-103 645-426-19 152-312 402a1185 1185 0 0 1-485 242zm1415-1505q-241 425-543 431-73 6-214-45a6677 6677 0 0 0-645-297l-119-44q-19-7-15-2 8 15 27 27 72 50 217 144 361 207 471 278a839 839 0 0 0 269 117q178 42 367-25 140-46 252-196z" style="fill:#0b4971;fill-opacity:1;fill-rule:evenodd;stroke:none" transform="matrix(.13333 0 0 -.13333 0 2800)"/><path d="M7949 9501q606 147 1394 627l374 275q45 33 17 27-521-239-1010-446-174-84-289-166z" style="fill:#0b4971;fill-opacity:1;fill-rule:evenodd;stroke:none" transform="matrix(.13333 0 0 -.13333 0 2800)"/><path d="M8797 9850q0 17 393 170 158 72 254 126 399 228 803 502l164 93q69 39 270 93-444-128-586-202a2725 2725 0 0 1-578-342z" style="fill:#0b4971;fill-opacity:1;fill-rule:evenodd;stroke:none" transform="matrix(.13333 0 0 -.13333 0 2800)"/><path d="M8838 10164q12 6 46 13a7379 7379 0 0 1 501 106l223 64q-8-8-17-14-115-63-162-86-13-10-525-247-199-102-277-146z" style="fill:#0b4971;fill-opacity:1;fill-rule:evenodd;stroke:none" transform="matrix(.13333 0 0 -.13333 0 2800)"/><path d="M10664 10942q-75 20-525-182-69-34-176-105a4045 4045 0 0 0-354-239q-171-99-245-130-223-97-505-139 157-58 455 33 207 53 582 315zm-3849-194-79-597q-9-126 22-135 44-3 98 47 25 25 42 46 75 114 113 156a1272 1272 0 0 0 260 223q11 9 116 68 9 3 7-3-60-59-87-100-28-40-93-172-20-33-47-69-105-141-187-231-189-208-312-225-119 2-122 225-7 123 137 530z" style="fill:#0b4971;fill-opacity:1;fill-rule:evenodd;stroke:none" transform="matrix(.13333 0 0 -.13333 0 2800)"/><path d="M6769 10973q54-78 71-168 15-76 0-189-15-84-55-175 3-8-148-304-20-59-23-116z" style="fill:#0b4971;fill-opacity:1;fill-rule:evenodd;stroke:none" transform="matrix(.13333 0 0 -.13333 0 2800)"/><path d="M6802 10972q27-74 40-225 11-141-3-247-14-93-32-147l-95-236q-9-22-29-91-13-56-24-164z" style="fill:#0b4971;fill-opacity:1;fill-rule:evenodd;stroke:none" transform="matrix(.13333 0 0 -.13333 0 2800)"/><path d="m6762 10841 1 8a783 783 0 0 1 4 102v87q1 16 24-36a481 481 0 0 0 32-190l-6-111z" style="fill:#0b4971;fill-opacity:1;fill-rule:evenodd;stroke:none" transform="matrix(.13333 0 0 -.13333 0 2800)"/><path d="M6495 10225q70 116 145 336 53 154 60 193 17 51 49 228 1 4 5 6 11 18 35-143 10-71 7-182-3-93-15-162-6-40-49-181z" style="fill:#0b4971;fill-opacity:1;fill-rule:evenodd;stroke:none" transform="matrix(.13333 0 0 -.13333 0 2800)"/><path d="M6621 10423a1537 1537 0 0 0-210-227l-5-8q-3-9 22-4 24 5 52 18 40 16 110 72zm91 357q12 64 15 94l18 192q0 4 3 4 33-45 48-125a778 778 0 0 0 14-194zm4-1010q62 369 270 593 279 315 646 441z" style="fill:#0b4971;fill-opacity:1;fill-rule:evenodd;stroke:none" transform="matrix(.13333 0 0 -.13333 0 2800)"/><path d="M7085 10222q48 354 511 1113 375 570 800 860zm3966 3593q19 58 22 86 9 264 27 294 37 124 128 212 77 86 317 220 50 36 650 332 35 16 27 32-99 31-673-93-261-69-415-184a565 565 0 0 1-206-272q-49-136-29-445z" style="fill:#0b4971;fill-opacity:1;fill-rule:evenodd;stroke:none" transform="matrix(.13333 0 0 -.13333 0 2800)"/><path d="M11025 13878q-49 87 35 388 51 154 192 259 132 100 295 158 79 29 221 65 222 44 456 109 124 38 168 65 10 24-116 45a650 650 0 0 1-224-1q-501-137-747-275z" style="fill:#0b4971;fill-opacity:1;fill-rule:evenodd;stroke:none" transform="matrix(.13333 0 0 -.13333 0 2800)"/><path d="M10895 14046q234 138 660 169 297 11 653-103-663 18-1327-392zm1281 939q-68-94-146-171a8235 8235 0 0 1-379-356q-103-111-166-201 123 58 195 81l414 122q141 64 172 108z" style="fill:#0b4971;fill-opacity:1;fill-rule:evenodd;stroke:none" transform="matrix(.13333 0 0 -.13333 0 2800)"/><path d="M11432 14143q565 146 1448-51-272-49-467-144-179-73-570-340-107-60-221-101-283-103-586-68zm2175 96q-225-137-563-268-116-45-237-85-96-32-328-86-21-7-6-11 586-40 848 16 175 45 314 115 43 23 70 42 140 109 275 188zm-452-836 652-229q-266 48-570 45-189 0-435-51-255-54-396-117-64-27-132-64-401-233-420-230-29-9-80 75-78 121-62 157 9 120 173 158z" style="fill:#0b4971;fill-opacity:1;fill-rule:evenodd;stroke:none" transform="matrix(.13333 0 0 -.13333 0 2800)"/><path d="M11819 12991q285 82 785 35 141-18 300-55 408-117 694-188-200 5-458-59-105-22-665-247-168-57-299-87a887 887 0 0 0-378-7zm763 758q87 3 328-57 97-24 163-44 603-187 683-202a5366 5366 0 0 1 1080-162q255-6 572 25 21 6-11 12-399 63-877 160l-1350 309q-174 38-262 42z" style="fill:#0b4971;fill-opacity:1;fill-rule:evenodd;stroke:none" transform="matrix(.13333 0 0 -.13333 0 2800)"/><path d="M15351 13387q-129-98-357-163-103-31-231-60-768-154-826-177-179-44-462-162 219-20 360-48 659-156 735-158 290-37 450 4 202 46 284 155 30 41 51 90 134 377 148 389z" style="fill:#0b4971;fill-opacity:1;fill-rule:evenodd;stroke:none" transform="matrix(.13333 0 0 -.13333 0 2800)"/><path d="M14931 12645q-327 99-666 44-233-20-917-295 405-27 855-158 254-83 602-331zm-1999-995q119-183 254-557-141 240-469 452-87 52-203 85l-394 84q-83 25-161 75a388 388 0 0 0-177 318q-2 222 154 193zm287 581q61-212 90-499 63-693 55-990-11-412-42-587-18-147-146-627-5-21 3-31 159 28 341 300 178 282 211 520 105 580-149 1477z" style="fill:#0b4971;fill-opacity:1;fill-rule:evenodd;stroke:none" transform="matrix(.13333 0 0 -.13333 0 2800)"/><path d="M13367 9863q0 312-283 799a3081 3081 0 0 1-636 774q-10 0-1-28 190-435 268-699 72-240 189-816zm-734 2303q540-399 578-1148-98 166-148 218a2030 2030 0 0 1-275 276q-264 192-459 221zm-497-162q177-318 233-643 21 28 104-1155 9-107 51-308 1-12-4-13-140 297-215 417-481 687-626 953a3361 3361 0 0 0-255 561zm334-3542q21 276-140 968-113 440-297 756-7-4-7-16 7-81-4-428-11-124-38-693 3-130-31-780z" style="fill:#0b4971;fill-opacity:1;fill-rule:evenodd;stroke:none" transform="matrix(.13333 0 0 -.13333 0 2800)"/><path d="M11840 11438q68-134 117-428 24-136 13-391-15-218-70-521-77-377-173-674-2 471-55 978-76 684-168 1056zm-105-2591q-55 99-298 656 30-97 45-229 3-219-5-451-2-157-38-515-15-141-49-371-3-14-7-8l-47 550q-20 188-92 692-6 31-48 433-31 298-28 387 6 226 42 326 33 32 143-135 118-197 190-410 66-188 88-266 112-385 106-420zm-323-1668q139 381 238 763 72 369 245 1111 68 353 131 793 13 71 19 84 63-67 72-482 6-272-72-741-120-679-424-1187z" style="fill:#0b4971;fill-opacity:1;fill-rule:evenodd;stroke:none" transform="matrix(.13333 0 0 -.13333 0 2800)"/><path d="M7587 10722q157 105 370 146 260 50 307 54 489 38 571 64a771 771 0 0 1-259-249q-96-135-154-233-134-254-210-376-116-185-172-254-47-67-191-159z" style="fill:#000;fill-opacity:1;fill-rule:evenodd;stroke:none" transform="matrix(.13333 0 0 -.13333 0 2800)"/><path d="M7793 9820q277 19 566 138 56 15 273 131 131 73 280 178 6 4 5-2-2-15-71-81-91-77-391-363-95-86-207-166a1657 1657 0 0 0-609-287zm-896 101q123 121 265 319 357 612 406 664 169 206 322 306 176 128 645 175-512-155-664-830z" style="fill:#000;fill-opacity:1;fill-rule:evenodd;stroke:none" transform="matrix(.13333 0 0 -.13333 0 2800)"/><path d="M6642 9688q54 28 143 143 234 400 286 440 149 142 264 166 174 44 212-143-14-224-217-445z" style="fill:#000;fill-opacity:1;fill-rule:evenodd;stroke:none" transform="matrix(.13333 0 0 -.13333 0 2800)"/><path d="M7094 10143a582 582 0 0 0-278-253q-177-63-224 50-24 60 8 171 10 62 139 391 33 107 46 174 24 114-13 330-53-331-110-462-40-121-248-481-45-98-71-180-45-218 38-343 144-185 375-111 334 87 574 355z" style="fill:#000;fill-opacity:1;fill-rule:evenodd;stroke:none" transform="matrix(.13333 0 0 -.13333 0 2800)"/><path d="M6787 10707q8-293-88-551-97-228-234-314z" style="fill:#000;fill-opacity:1;fill-rule:evenodd;stroke:none" transform="matrix(.13333 0 0 -.13333 0 2800)"/><path d="M6669 10185q-62-201 9-321 31-60 93-88 24-9 49-11 35-3 83 7 9-1 6-6-59-43-151-66-109-27-178-18-76 16-93 40-33 30-29 110z" style="fill:#000;fill-opacity:1;fill-rule:evenodd;stroke:none" transform="matrix(.13333 0 0 -.13333 0 2800)"/><path d="M6553 10011a395 395 0 0 1 317-128q34 2 96 29 11 3 11-1-10-37-70-96-57-54-112-85-63-35-138-50-36-9-78 7z" style="fill:#000;fill-opacity:1;fill-rule:evenodd;stroke:none" transform="matrix(.13333 0 0 -.13333 0 2800)"/><path d="M6704 10254q-26-62-38-149-7-52 2-126 9-59 34-104 21-43 87-119 4-6 2-9-41-7-107 42-55 43-81 106-45 123 28 252z" style="fill:#000;fill-opacity:1;fill-rule:evenodd;stroke:none" transform="matrix(.13333 0 0 -.13333 0 2800)"/><path d="M6696 10237v-7l-7-30a1565 1565 0 0 0-36-144q-28-79-57-114z" style="fill:#000;fill-opacity:1;fill-rule:evenodd;stroke:none" transform="matrix(.13333 0 0 -.13333 0 2800)"/><path d="M6701 10225q3-23-9-75-16-73-30-105-34-81-76-118zm-70-256q25-49 77-79 46-30 92-27 29 0 51 17l18 15 102 93q2 3 3 1-25-87-120-235-44-72-131-146z" style="fill:#000;fill-opacity:1;fill-rule:evenodd;stroke:none" transform="matrix(.13333 0 0 -.13333 0 2800)"/><path d="M6748 9836q17 10 53 43 89 99 101 103 16 14 74 39 23 10 42 11 25 2 31-5 6-6 1-26-20-78-74-150zm-180 140q-160 3-196 50-82 69-99 205-5 92 12 165 14 90 119 476 33 138 64 348-15-52-306-557-72-129-102-221-91-266 8-406 47-76 93-103 248-109 266-128 35-24 56-94z" style="fill:#000;fill-opacity:1;fill-rule:evenodd;stroke:none" transform="matrix(.13333 0 0 -.13333 0 2800)"/><path d="M6242 10053q36-156 31-161 3-51-16-140-24-105-76-249-20-66-141-328-33-81-43-111-28-87-20-201 5-4 11 3 125 154 196 208 192 152 370 263 56 42 91 73 100 91 124 151z" style="fill:#000;fill-opacity:1;fill-rule:evenodd;stroke:none" transform="matrix(.13333 0 0 -.13333 0 2800)"/><path d="M6002 8970q219 222 588 332 139 39 274 52 157 15 592 22 67 6 196 29 115 15 281 142 13 10-8 29-42 37-227 174-119 79-185 97-162 68-397-43z" style="fill:#000;fill-opacity:1;fill-rule:evenodd;stroke:none" transform="matrix(.13333 0 0 -.13333 0 2800)"/><path d="M6109 9067q-4 4 113 86l93 58q54 35 217 107 29 15 68 41z" style="fill:#000;fill-opacity:1;fill-rule:evenodd;stroke:none" transform="matrix(.13333 0 0 -.13333 0 2800)"/><path d="M6068 8979q129 149 518 363 15 8-40 70z" style="fill:#000;fill-opacity:1;fill-rule:evenodd;stroke:none" transform="matrix(.13333 0 0 -.13333 0 2800)"/><path d="M6226 9141q23 20 54 36 85 39 199 95 7 3 11 9zm438 228q88 23 247 23 68 0 213-9 212-15 278-23l82-4q58-4 124 6a515 515 0 0 1 320 208zm1075 1226q-154-25-312-325a762 762 0 0 1-85-474q34-108 145-159 104-43 210 11 141 106 163 179 48 131 15 281z" style="fill:#000;fill-opacity:1;fill-rule:evenodd;stroke:none" transform="matrix(.13333 0 0 -.13333 0 2800)"/><path d="M6297 9955q-66-199-374-812-105-210-158-299-299-481-326-540-37-62-150-349 543 746 903 1119 361 362 625 504z" style="fill:#000;fill-opacity:1;fill-rule:evenodd;stroke:none" transform="matrix(.13333 0 0 -.13333 0 2800)"/><path d="M6234 9246a915 915 0 0 0 454 86l378-19q34-2 172-1 204 2 284 26 459 132 403 337z" style="fill:#000;fill-opacity:1;fill-rule:evenodd;stroke:none" transform="matrix(.13333 0 0 -.13333 0 2800)"/><path d="M6405 9285q66 29 252 35 62 3 138 1 212-12 239-11 82-1 79 2 25 10 31 42 30 120 34 184z" style="fill:#000;fill-opacity:1;fill-rule:evenodd;stroke:none" transform="matrix(.13333 0 0 -.13333 0 2800)"/><path d="M6622 9375q21 10 77 18a1552 1552 0 0 0 137 10l84 7zm286-52 203-26q64-6 133-6 65-3 222 29 423 98 557 267zm-649 1406q43 57 369 893 98 231 140 292 112 179 158 224l554 593q-8 13-43 0l-260-128q-86-43-232-151a1273 1273 0 0 1-446-632l-42-153-153-644q-56-207-176-522z" style="fill:#000;fill-opacity:1;fill-rule:evenodd;stroke:none" transform="matrix(.13333 0 0 -.13333 0 2800)"/><path d="M6465 11612a4294 4294 0 0 0-327-931q-27-75-50-164-65-214 15-330z" style="fill:#000;fill-opacity:1;fill-rule:evenodd;stroke:none" transform="matrix(.13333 0 0 -.13333 0 2800)"/><path d="M6430 11385q-47-149-112-311-67-162-178-391-71-169-74-195-68-276 30-373z" style="fill:#000;fill-opacity:1;fill-rule:evenodd;stroke:none" transform="matrix(.13333 0 0 -.13333 0 2800)"/><path d="M6077 10229q-8 208 51 394 192 528 265 753 95 259 123 319z" style="fill:#000;fill-opacity:1;fill-rule:evenodd;stroke:none" transform="matrix(.13333 0 0 -.13333 0 2800)"/><path d="M6072 10237q-30 130 62 463 24 80 95 266 255 642 275 705 42 122 54 176zm201 208q18 199 164 607 60 171 114 306l255 608q18 45 20 59 10 28-23 56a67 67 0 0 1-59 12q-105-36-142-122z" style="fill:#000;fill-opacity:1;fill-rule:evenodd;stroke:none" transform="matrix(.13333 0 0 -.13333 0 2800)"/><path d="M6292 10601q6 30 137 424 72 254 108 359 3 17 90 244l25 76z" style="fill:#000;fill-opacity:1;fill-rule:evenodd;stroke:none" transform="matrix(.13333 0 0 -.13333 0 2800)"/><path d="M6278 10418q25 93 91 300 189 525 187 538 59 185 107 394 85 353-36 299z" style="fill:#000;fill-opacity:1;fill-rule:evenodd;stroke:none" transform="matrix(.13333 0 0 -.13333 0 2800)"/><path d="M6588 11509q33 227 256 511 36 46 79 93l365 387 332 315q12 31-130 29-76-7-169-52a759 759 0 0 1-308-277z" style="fill:#000;fill-opacity:1;fill-rule:evenodd;stroke:none" transform="matrix(.13333 0 0 -.13333 0 2800)"/><path d="M7423 12752q-69-96-135-359-90-423-74-472 200 332 423 569 76 80 202 189 287 228 515 433 124 116 187 207 64 102 67 192 9 91-54 104a911 911 0 0 1-602-47zm-75 145q-219-127-428-381a1132 1132 0 0 1-215-424z" style="fill:#000;fill-opacity:1;fill-rule:evenodd;stroke:none" transform="matrix(.13333 0 0 -.13333 0 2800)"/><path d="M7312 12877a2005 2005 0 0 1-459-421q-241-325-214-453z" style="fill:#000;fill-opacity:1;fill-rule:evenodd;stroke:none" transform="matrix(.13333 0 0 -.13333 0 2800)"/><path d="M7083 12668q-70-36-303-330-178-259-180-338z" style="fill:#000;fill-opacity:1;fill-rule:evenodd;stroke:none" transform="matrix(.13333 0 0 -.13333 0 2800)"/><path d="M6879 12399a992 992 0 0 1-174-210q-48-69-69-158z" style="fill:#000;fill-opacity:1;fill-rule:evenodd;stroke:none" transform="matrix(.13333 0 0 -.13333 0 2800)"/><path d="m6926 12500-139-167q-31-38-85-119-62-95-81-185z" style="fill:#000;fill-opacity:1;fill-rule:evenodd;stroke:none" transform="matrix(.13333 0 0 -.13333 0 2800)"/><path d="M6854 12418q-68-89-173-269-30-51-47-104z" style="fill:#000;fill-opacity:1;fill-rule:evenodd;stroke:none" transform="matrix(.13333 0 0 -.13333 0 2800)"/><path d="M6843 12379q-35-30-92-114-86-135-84-136-14-24-20-54z" style="fill:#000;fill-opacity:1;fill-rule:evenodd;stroke:none" transform="matrix(.13333 0 0 -.13333 0 2800)"/><path d="M6854 12405q-57-45-139-164l-70-120q-28-63-34-101z" style="fill:#000;fill-opacity:1;fill-rule:evenodd;stroke:none" transform="matrix(.13333 0 0 -.13333 0 2800)"/><path d="M6889 12432q-72-45-184-208-31-42-91-149-18-35-28-82z" style="fill:#000;fill-opacity:1;fill-rule:evenodd;stroke:none" transform="matrix(.13333 0 0 -.13333 0 2800)"/><path d="M6819 12361q-24-14-90-107-15-18-70-137zm792 747a952 952 0 0 0-305 288q-139 210-197 318-223 446-223 429-85 142-191 256 30-8 171-132 207-234 274-280 102-83 306-167-112 110-207 280-214 473-240 495-5 9 4 10 651-410 845-778a801 801 0 0 0-32-752z" style="fill:#000;fill-opacity:1;fill-rule:evenodd;stroke:none" transform="matrix(.13333 0 0 -.13333 0 2800)"/><path d="M6317 15502q249-366 658-1047l214-319q131-196 296-315 124-64 153-9-68 89-95 158-24 35-149 453-103 243-154 320-176 296-688 602zm1308-2299q3-98-70-179-86-83-179-66-93 15-183 86-96 66-264 252-10 7-14 0 53-201 208-412 114-147 264-186 78-24 189 2 47 21 128 100 155 164 128 348z" style="fill:#000;fill-opacity:1;fill-rule:evenodd;stroke:none" transform="matrix(.13333 0 0 -.13333 0 2800)"/><path d="M7338 12582a2033 2033 0 0 0-375 400q-44 34-298 560 1 9 31-21 185-195 240-241 119-108 210-178 198-147 397-220z" style="fill:#000;fill-opacity:1;fill-rule:evenodd;stroke:none" transform="matrix(.13333 0 0 -.13333 0 2800)"/><path d="M7388 12891a3083 3083 0 0 0-671 709q-325 455-414 858 96-522 330-979 275-512 647-788z" style="fill:#000;fill-opacity:1;fill-rule:evenodd;stroke:none" transform="matrix(.13333 0 0 -.13333 0 2800)"/><path d="M6846 13364q-105 121-305 571a4644 4644 0 0 0-227 613q-49 190-63 529-6 217 29 515 0 12-9-7-15-26-30-134-73-532-69-561-17-297 40-523 196-654 592-1093z" style="fill:#000;fill-opacity:1;fill-rule:evenodd;stroke:none" transform="matrix(.13333 0 0 -.13333 0 2800)"/><path d="M6499 14004q160-372 409-699-32 6-95 75a1221 1221 0 0 0-203 253z" style="fill:#000;fill-opacity:1;fill-rule:evenodd;stroke:none" transform="matrix(.13333 0 0 -.13333 0 2800)"/><path d="M6553 13883q20-42 125-225l193-312q-27 4-218 269-81 113-127 219zm-72-143q-254 440-277 539-72 195-96 432-9 78-12 147-4 251-11 440l-30 502q1 47-25 148 151-22 223-226 19-90 15-170-1-46-6-80a6583 6583 0 0 1-41-397q-10-150 3-292 4-93 46-284 79-306 109-339z" style="fill:#000;fill-opacity:1;fill-rule:evenodd;stroke:none" transform="matrix(.13333 0 0 -.13333 0 2800)"/><path d="M6143 15674q73-90 178-240 40-49 226-373 31-49 104-142 113-165 386-391-40 76-57 124-99 305-140 386-78 162-153 267a1524 1524 0 0 1-524 459z" style="fill:#000;fill-opacity:1;fill-rule:evenodd;stroke:none" transform="matrix(.13333 0 0 -.13333 0 2800)"/><path d="M6398 15569q-60-103-91-382-27-259 1-478 40-307 103-505 28-93 63-179l143-319q14-29 6-20-87 150-232 543-123 333-142 482-39 210-36 452 1 81 17 277 35 228 37 263z" style="fill:#000;fill-opacity:1;fill-rule:evenodd;stroke:none" transform="matrix(.13333 0 0 -.13333 0 2800)"/><path d="M6070 15932q217-95 373-199 91-61 276-203 348-307 423-351 79-57 127-87l303-175q-15-65-243-46-153 24-345 133-405 225-808 726z" style="fill:#000;fill-opacity:1;fill-rule:evenodd;stroke:none" transform="matrix(.13333 0 0 -.13333 0 2800)"/><path d="M6555 15603q176-153 575-314 111-60 774-196 133-38 223-80 278-123 358-263 191-315 20-501-59-69-230-82-78 2-322 65-618 130-1126 968z" style="fill:#000;fill-opacity:1;fill-rule:evenodd;stroke:none" transform="matrix(.13333 0 0 -.13333 0 2800)"/><path d="m7160 14851 263-555q21-53 270-470 191-328 325-373 112-59 258 8 93 61 101 173 21 481-254 792zm-1013 377q-37 297-76 474-37 201-107 330-2 9 12 10 183-27 411-219 292-227 454-507-2-6-14 1-46 34-306 184-157 85-174 85-127 48-143-50z" style="fill:#000;fill-opacity:1;fill-rule:evenodd;stroke:none" transform="matrix(.13333 0 0 -.13333 0 2800)"/><path d="M8457 13542q196-399 649-928a2099 2099 0 0 0-231 471q-174 591-309 1254-2 33-57 77-168 27-355-172-136-126-147-377z" style="fill:#000;fill-opacity:1;fill-rule:evenodd;stroke:none" transform="matrix(.13333 0 0 -.13333 0 2800)"/><path d="M7862 12793q63 55 627 324 108 61 146 105 69 72 65 162-17 128-97 193z" style="fill:#000;fill-opacity:1;fill-rule:evenodd;stroke:none" transform="matrix(.13333 0 0 -.13333 0 2800)"/><path d="M7811 12715q70 48 292 182 165 92 458 233 69 39 94 66 72 87 39 185-46 99-162 118z" style="fill:#000;fill-opacity:1;fill-rule:evenodd;stroke:none" transform="matrix(.13333 0 0 -.13333 0 2800)"/><path d="M7546 12505q291 206 590 387 42 29 76 57 130 105 90 193zm876 1860q11 352 141 734 199 564 502 1048 3-14-3-38-114-360-120-393-4-6-59-265-119-603-170-993-88-701 10-1154z" style="fill:#000;fill-opacity:1;fill-rule:evenodd;stroke:none" transform="matrix(.13333 0 0 -.13333 0 2800)"/><path d="M8653 14418a3481 3481 0 0 1 38-531l63-418 11-80q-12-21-51 104-34 117-56 259-31 216-32 536z" style="fill:#000;fill-opacity:1;fill-rule:evenodd;stroke:none" transform="matrix(.13333 0 0 -.13333 0 2800)"/><path d="M8681 14563v-34l-8-244-7-210-1-218 8-210z" style="fill:#000;fill-opacity:1;fill-rule:evenodd;stroke:none" transform="matrix(.13333 0 0 -.13333 0 2800)"/><path d="M8705 14704v-23l-15-220-3-68q-9-384-10-510a4217 4217 0 0 1 12-370q-19 9-78 372-23 137-24 272zm-273-252q-1 113 30 257l222 868q108 387 340 912 62 175 120 406 33 83 44-136 6-265-28-391-24-109-52-193a7464 7464 0 0 1-293-844z" style="fill:#000;fill-opacity:1;fill-rule:evenodd;stroke:none" transform="matrix(.13333 0 0 -.13333 0 2800)"/><path d="M9175 16957q111-249 58-504-15-81-98-334a9577 9577 0 0 1-222-578q-49-146-100-425zm952-4776q-307 109-596 518a2449 2449 0 0 0-444 921q-109 418-52 787 87 469 339 930 17-291 288-796 36-110 743-1003 170-244 259-442 231-513 193-925z" style="fill:#000;fill-opacity:1;fill-rule:evenodd;stroke:none" transform="matrix(.13333 0 0 -.13333 0 2800)"/><path d="M9099 13557q-153 540-94 944 24 185 118 545 114 409 265 742 21 62 27 135 12-130 88-264 0-32 486-666 176-299 243-515 174-671-17-889z" style="fill:#000;fill-opacity:1;fill-rule:evenodd;stroke:none" transform="matrix(.13333 0 0 -.13333 0 2800)"/><path d="M9826 15187q61-71 444-795 123-256 170-478 55-285 7-471-51-198-207-245z" style="fill:#000;fill-opacity:1;fill-rule:evenodd;stroke:none" transform="matrix(.13333 0 0 -.13333 0 2800)"/><path d="M9865 15059q354-487 450-788 153-520 56-824z" style="fill:#000;fill-opacity:1;fill-rule:evenodd;stroke:none" transform="matrix(.13333 0 0 -.13333 0 2800)"/><path d="M9990 14911q221-280 346-727 43-148 55-418 14-155-30-364z" style="fill:#000;fill-opacity:1;fill-rule:evenodd;stroke:none" transform="matrix(.13333 0 0 -.13333 0 2800)"/><path d="M9420 15916q44-101 111-194 437-515 522-685 134-228 180-524 18-201-63-394-124-246-201-203-174 84-420 788z" style="fill:#000;fill-opacity:1;fill-rule:evenodd;stroke:none" transform="matrix(.13333 0 0 -.13333 0 2800)"/><path d="M9964 15114q292-472 405-933 72-340 99-739 13-232-21-508z" style="fill:#000;fill-opacity:1;fill-rule:evenodd;stroke:none" transform="matrix(.13333 0 0 -.13333 0 2800)"/><path d="M9934 15197q239-322 407-868 59-231 83-481 30-304 8-589z" style="fill:#000;fill-opacity:1;fill-rule:evenodd;stroke:none" transform="matrix(.13333 0 0 -.13333 0 2800)"/><path d="M9979 15096q207-214 361-732 84-321 107-556 27-273 9-643z" style="fill:#000;fill-opacity:1;fill-rule:evenodd;stroke:none" transform="matrix(.13333 0 0 -.13333 0 2800)"/><path d="M10162 14680q80-189 89-219 192-604 227-658 71-163 241-385 4-3 0 26a1201 1201 0 0 0-31 231q21 403 18 517 2 227-24 542 0 17 6 10 206-553 269-985 79-515-38-869-141-390-412-482zm-1267 912q9 58 48 162 221 524 262 653 80 225 114 389 3 5 31-30l500-655a3112 3112 0 0 0 254-421q6-8 7-1-183 597-280 758l-580 823z" style="fill:#000;fill-opacity:1;fill-rule:evenodd;stroke:none" transform="matrix(.13333 0 0 -.13333 0 2800)"/><path d="M9003 15763q10 63 47 162l244 624q13 30 69 240 102-200 134-236-6 18 513-690 10-12 13-4-89 237-269 515l-290 425a2263 2263 0 0 1-256 295z" style="fill:#000;fill-opacity:1;fill-rule:evenodd;stroke:none" transform="matrix(.13333 0 0 -.13333 0 2800)"/><path d="M9268 16769q80-72 116-113 285-342 311-370l398-439q-4 20-40 72l-309 461a8709 8709 0 0 1-404 554q-31 41-84 131zm1655-5685q-48 260-325 459-119 86-268 161l-638 286q-149 72-356 261 282-186 467-184 82-4 166 23 19 3 175 145 30 23 58 39 105 50 219 63 187 19 359-23 228-42 299-126zm-156-3070q-143 316-180 731-32 227 1 1167 143-537 503-901-87 386-98 723-5 246 48 745 60-94 200-971 54-336 36-572-8-180-78-354-184-325-293-430z" style="fill:#000;fill-opacity:1;fill-rule:evenodd;stroke:none" transform="matrix(.13333 0 0 -.13333 0 2800)"/><path d="M11155 8927a6378 6378 0 0 0-278 1560l-17 704q3 225 44 668l66-176q197-403 245-547 154-420 176-587 25-171 2-458-6-42-20-103-84-328-88-352l-47-235zm-790-2296q-21 52-40 207-41 378-62 720l-62 1321q0 23 7 28 9 6 19-7 66-122 162-239 372-442 397-484 111-146 171-275 204-445 137-858z" style="fill:#000;fill-opacity:1;fill-rule:evenodd;stroke:none" transform="matrix(.13333 0 0 -.13333 0 2800)"/><path d="M11358 10096q-28-182 0-536 189-1645 200-2013 21-495-61-825-108-447-392-695-571-416-640-242-110 490-31 926 93 554 429 1347z" style="fill:#000;fill-opacity:1;fill-rule:evenodd;stroke:none" transform="matrix(.13333 0 0 -.13333 0 2800)"/><path d="M10948 8664q-129-105-210-420-78-330-14-445 85-174 268-61 72 18 208 392zm-204-1958q-1151 1566-2764 923 660 131 1296-480 350-301 482-1432 181 784 202 1069 26 21 329-905l198-462q17-6 21 21 15 222 102 484 69 220 140 352z" style="fill:#000;fill-opacity:1;fill-rule:evenodd;stroke:none" transform="matrix(.13333 0 0 -.13333 0 2800)"/><path d="M9808 6953q111-109 332-690 109-296 174-512 221-820 267-926 92-262 306-723-57 436-53 597-3 79 3 194 45 630 40 736 0 293-40 685z" style="fill:#000;fill-opacity:1;fill-rule:evenodd;stroke:none" transform="matrix(.13333 0 0 -.13333 0 2800)"/><path d="M10574 6309q11-602 440-1394 388-715 1112-1357-60 297-39 528 4 108 30 325 82 442 119 863 34 547 11 540-131 743-362 1315-154 392-148 353-11 35-218 198z" style="fill:#000;fill-opacity:1;fill-rule:evenodd;stroke:none" transform="matrix(.13333 0 0 -.13333 0 2800)"/><path d="M11996 6826q0-715 365-1854 212-720 753-1648a2485 2485 0 0 0-129 971q5 256 67 792 199 1421 192 1535 25 323 33 584 3 63-12 178z" style="fill:#000;fill-opacity:1;fill-rule:evenodd;stroke:none" transform="matrix(.13333 0 0 -.13333 0 2800)"/><path d="M11406 6630q-27 107 127 740 231 914 493 1745 73 272 159 681 6 27 24 25 62-129 314-1264 70-421 37-909-38-408-187-685-124-242-468-563zm-261 3600q91-141 244-467 174-391 349-883 13-27 25-11 10-2 28 313 38 753 36 1137-5 435-92 906-95 472-292 637-46 89-682 213z" style="fill:#000;fill-opacity:1;fill-rule:evenodd;stroke:none" transform="matrix(.13333 0 0 -.13333 0 2800)"/><path d="M11568 11498q538-509 866-1400-17 572-164 1221-109 424-298 647a856 856 0 0 1-409 263q-124 54-682 79z" style="fill:#000;fill-opacity:1;fill-rule:evenodd;stroke:none" transform="matrix(.13333 0 0 -.13333 0 2800)"/><path d="M12325 10548q-5 4-19 154l-51 647q-11 120-25 188-54 283-192 496-309 498-994 488z" style="fill:#000;fill-opacity:1;fill-rule:evenodd;stroke:none" transform="matrix(.13333 0 0 -.13333 0 2800)"/><path d="M11981 11956q210 23 611-203 123-75 232-171 71-59 276-295 17-16 27-13a2044 2044 0 0 1-590 1021q-185 183-577 283-346 70-596-66zm364-3860q0 40 23 141 207 832 209 874 138 680 150 845 27 217 21 444-3 225-52 560-1 12 5 19 319-303 703-1084 175-417 160-911-3-138-23-212-49-177-127-406-142-402-313-711a3347 3347 0 0 0-802-967z" style="fill:#000;fill-opacity:1;fill-rule:evenodd;stroke:none" transform="matrix(.13333 0 0 -.13333 0 2800)"/><path d="M13445 8950q67 838 34 1378-87 1288-265 1834-3 55 72 64 519 5 940-123 444-175 451-421 53-237-133-818-81-289-750-1861z" style="fill:#000;fill-opacity:1;fill-rule:evenodd;stroke:none" transform="matrix(.13333 0 0 -.13333 0 2800)"/><path d="m14794 10119-161-95q-664-438-1637-1817-301-531-329-634a3710 3710 0 0 1-249-824q-36-190-41-429 12-120 110-90 405 271 780 871 279-882 591-1788-90 752 151 2005 157 809 318 1362 209 693 473 1374 21 59-6 65" style="fill:#000;fill-opacity:1;fill-rule:evenodd;stroke:none" transform="matrix(.13333 0 0 -.13333 0 2800)"/><path d="M13774 9216q159 394 1210 1414 416 420 1235 926-855-893-1543-2275a7510 7510 0 0 1-772-2210z" style="fill:#000;fill-opacity:1;fill-rule:evenodd;stroke:none" transform="matrix(.13333 0 0 -.13333 0 2800)"/><path d="M15108 10111q-292-399-811-1840a9725 9725 0 0 1-473-1811q-68 64 33 755 87 553 260 1094 247 834 847 1705zm-3845 2837q558 63 933 23 649-65 1076-215-1-11-26-15-224-3-478-58-173-37-362-114-208-81-481-241-52-23-315-235z" style="fill:#000;fill-opacity:1;fill-rule:evenodd;stroke:none" transform="matrix(.13333 0 0 -.13333 0 2800)"/><path d="M11204 13727q306 54 1220-85 515-106 1201-421-543 49-684 24-224-16-584-135-259-84-511-216-538-280-1081-610-86-48-110-50z" style="fill:#000;fill-opacity:1;fill-rule:evenodd;stroke:none" transform="matrix(.13333 0 0 -.13333 0 2800)"/><path d="M11536 12757q-49 45-305-45-237-92-359-201-255-236-145-467 178-245 548-152 281 123 462 520zm-518 1209q270 159 746 190 303 20 839-106-463-30-1131-357-325-165-602-584z" style="fill:#000;fill-opacity:1;fill-rule:evenodd;stroke:none" transform="matrix(.13333 0 0 -.13333 0 2800)"/><path d="M11212 13612q-130-32-258-244a541 541 0 0 1-62-353q17-67 71-73 49-3 121 44 112 72 211 289zm3672-1061q-554 29-669 14-501-43-582-78 516-215 723-400 242-203 390-534z" style="fill:#000;fill-opacity:1;fill-rule:evenodd;stroke:none" transform="matrix(.13333 0 0 -.13333 0 2800)"/><path d="M15220 13101q-722-106-1277-157l-166-29q531-126 887-338 294-168 528-515zm-4269 1875h-13q-168 5-192-49-36-39-55-114a519 519 0 0 1-17-201l45-356 68-326 56-358q25-83 44-75 28 8 37 28 18 35 49 122 70 210 76 319 14 154-6 346-28 217-58 316a806 806 0 0 0 195 253q9 10 8 16-55 66-237 79" style="fill:#000;fill-opacity:1;fill-rule:evenodd;stroke:none" transform="matrix(.13333 0 0 -.13333 0 2800)"/><path d="M10604 14848q204 156 575 228 108 23 263 43 909 87 991 105 177 24 563 129-113-177-602-379-113-41-233-70-619-122-699-149-235-66-359-121-268-129-310-285z" style="fill:#000;fill-opacity:1;fill-rule:evenodd;stroke:none" transform="matrix(.13333 0 0 -.13333 0 2800)"/><path d="M12241 15010q-191-337-665-670 385 156 546 236 294 157 455 299 133 132 415 449 33 37 68 96zm-1485-1220q-10 519-223 1076-100 246-172 385-682 1246-702 1360 262-137 660-614 273-324 447-684 146-287 182-577 45-360-28-719z" style="fill:#000;fill-opacity:1;fill-rule:evenodd;stroke:none" transform="matrix(.13333 0 0 -.13333 0 2800)"/><path d="M10922 14612q2 594-481 1324-77 118-149 213-383 472-569 751a8234 8234 0 0 0-459 739q-104-188 93-621 212-469 587-913z" style="fill:#000;fill-opacity:1;fill-rule:evenodd;stroke:none" transform="matrix(.13333 0 0 -.13333 0 2800)"/><path d="M9273 17633q-6-152-33-302l-66-332-119-559q62 21 218 380 82 189 125 437z" style="fill:#000;fill-opacity:1;fill-rule:evenodd;stroke:none" transform="matrix(.13333 0 0 -.13333 0 2800)"/><path d="m9277 17626-46-225a14785 14785 0 0 0-151-808l-55-224q68 89 206 483 84 239 129 536z" style="fill:#000;fill-opacity:1;fill-rule:evenodd;stroke:none" transform="matrix(.13333 0 0 -.13333 0 2800)"/><path d="M9266 17599q-46-312-60-358l-130-537-87-401q60 50 212 403 84 201 141 508z" style="fill:#000;fill-opacity:1;fill-rule:evenodd;stroke:none" transform="matrix(.13333 0 0 -.13333 0 2800)"/><path d="M9270 17629q-26-112-79-405l-64-296-52-227q-83-318-86-349 8-55 200 417 138 373 138 460z" style="fill:#000;fill-opacity:1;fill-rule:evenodd;stroke:none" transform="matrix(.13333 0 0 -.13333 0 2800)"/><path d="M9260 17676q-54-258-58-296-15-99-31-224l-19-127-13-103q5-22 29 21 22 43 80 175 55 134 82 254zm2862-3020q132 56 381 7 73-16 149-41l289-108q105-36 291-89 18-4 9-9-132-43-421-43-91 0-193 8l-423 42q-61 6-152 3-214-3-454-62z" style="fill:#000;fill-opacity:1;fill-rule:evenodd;stroke:none" transform="matrix(.13333 0 0 -.13333 0 2800)"/><path d="M11933 14491q153 9 324-25 92-18 218-51 401-114 885-233 265-56 448-62 372-20 521 28 228 63 391 198 12 12-26 11-243-41-489-32-286 6-576 54-200 30-430 91-106 27-528 170-110 33-195 55-240 58-302 49z" style="fill:#000;fill-opacity:1;fill-rule:evenodd;stroke:none" transform="matrix(.13333 0 0 -.13333 0 2800)"/><path d="M13844 14222q-135-97-472-249-136-64-469-166-16-22 111-29 208-7 325 5 282 20 682 179 284 101 614 326z" style="fill:#000;fill-opacity:1;fill-rule:evenodd;stroke:none" transform="matrix(.13333 0 0 -.13333 0 2800)"/><path d="M13574 13911q15 0 52-12a7391 7391 0 0 1 719-222q407-101 411-98 77-16 378-57 15-27-127-48-252-40-699 35-149 22-312 64-10-2-497 147-106 30-192 47-169 41-434 42z" style="fill:#000;fill-opacity:1;fill-rule:evenodd;stroke:none" transform="matrix(.13333 0 0 -.13333 0 2800)"/><path d="M13690 13777q68-20 179-40l875-155q211-36 480-63 263-21 499-12 141 4 363 50-168-146-407-210-232-55-554-21-444 65-823 171-273 65-864 280-126 40-237 55z" style="fill:#000;fill-opacity:1;fill-rule:evenodd;stroke:none" transform="matrix(.13333 0 0 -.13333 0 2800)"/><path d="M15990 13427q-37 0-81-9-370-114-474-115-178-21-499 20-326 45-604 123-168 40-913 291-254 82-320 89z" style="fill:#000;fill-opacity:1;fill-rule:evenodd;stroke:none" transform="matrix(.13333 0 0 -.13333 0 2800)"/><path d="M14205 13542q-103 39-616 146-571 106-619 109-37 15 70 16 155 3 247-9 378-63 487-115zm1462-71q-356-290-958-518 30-21 182-11 145 18 240 48 329 103 587 258 76 48 153 112 309 261 282 258z" style="fill:#000;fill-opacity:1;fill-rule:evenodd;stroke:none" transform="matrix(.13333 0 0 -.13333 0 2800)"/><path d="M16086 13572a5144 5144 0 0 0-794-645q-282-166-398-72z" style="fill:#000;fill-opacity:1;fill-rule:evenodd;stroke:none" transform="matrix(.13333 0 0 -.13333 0 2800)"/><path d="M16137 13598q-587-730-1154-718z" style="fill:#000;fill-opacity:1;fill-rule:evenodd;stroke:none" transform="matrix(.13333 0 0 -.13333 0 2800)"/><path d="M15251 12929q190 102 631 119 135 1 334-17 78-11 608-63 28-6 15-19-228-94-359-166-597-356-658-375-160-78-286-111-514-129-856 60z" style="fill:#000;fill-opacity:1;fill-rule:evenodd;stroke:none" transform="matrix(.13333 0 0 -.13333 0 2800)"/><path d="M15517 12399q129 67 456 96 736 6 934 27-439-109-999-511a2424 2424 0 0 1-346-303q-611-766-669-783-279-223-425-195-163 65-228 381a772 772 0 0 0 60 490q265 759 924 879z" style="fill:#000;fill-opacity:1;fill-rule:evenodd;stroke:none" transform="matrix(.13333 0 0 -.13333 0 2800)"/><path d="M15389 11774q-77-50-446-731-140-249-239-450-421-914-455-956-148-271-221-337-231-109-37 678 120 468 502 1043z" style="fill:#000;fill-opacity:1;fill-rule:evenodd;stroke:none" transform="matrix(.13333 0 0 -.13333 0 2800)"/><path d="M15591 11836q-262-287-631-939-129-241-219-451l-416-1027q-81-30-39 309 36 255 183 628 285 713 684 1124zM6390 9350q-176-177-601-799-876-1448-877-1400a3358 3358 0 0 0-430-484q-200-156-270-107-93 75 15 252 38 60 92 122 344 348 885 1003 166 203 662 975z" style="fill:#000;fill-opacity:1;fill-rule:evenodd;stroke:none" transform="matrix(.13333 0 0 -.13333 0 2800)"/><path d="M6953 9641q-300-131-811-667-86-92-314-380-429-613-645-891 188 410 732 1091 375 488 741 751zM4880 7343q-94-27-195-421-34-283 36-441 164-417 779-807-270-21-671 254-597 449-566 452a466 466 0 0 0-128 281q21 225 120 326 31 33 79 66 225 127 492 328z" style="fill:#000;fill-opacity:1;fill-rule:evenodd;stroke:none" transform="matrix(.13333 0 0 -.13333 0 2800)"/><path d="M4931 7389a917 917 0 0 1-195-435 877 877 0 0 1 29-433q44-181 222-420 98-127 439-383-178 54-436 276a1177 1177 0 0 0-314 377 800 800 0 0 0 19 781z" style="fill:#000;fill-opacity:1;fill-rule:evenodd;stroke:none" transform="matrix(.13333 0 0 -.13333 0 2800)"/><path d="M4936 7263q-105-103-201-374-29-102-39-191-9-45-5-257 0-8-6-8-71 128-37 428 16 134 49 236 28 84 101 202z" style="fill:#000;fill-opacity:1;fill-rule:evenodd;stroke:none" transform="matrix(.13333 0 0 -.13333 0 2800)"/><path d="M4262 6341a524 524 0 0 0-19 612q63 114 195 238 124 115 133 121 209 160 408 348 179 210 219 308z" style="fill:#000;fill-opacity:1;fill-rule:evenodd;stroke:none" transform="matrix(.13333 0 0 -.13333 0 2800)"/><path d="M4463 7059q-3 9 74 115l581 749q551 884 711 1083 158 279 152 258 27 27-30-115-28-76-141-303-93-198-544-978a3185 3185 0 0 0-474-565zm-35 85a933 933 0 0 1-241-247q-69-110-71-221 3-245 328-380z" style="fill:#000;fill-opacity:1;fill-rule:evenodd;stroke:none" transform="matrix(.13333 0 0 -.13333 0 2800)"/><path d="M4413 7126q-73 2-221-226-91-168-73-271 16-125 120-239 17-40 298-223z" style="fill:#000;fill-opacity:1;fill-rule:evenodd;stroke:none" transform="matrix(.13333 0 0 -.13333 0 2800)"/><path d="M4294 7061q-114-62-181-272-44-127 25-286a651 651 0 0 1 195-238q92-68 371-184 65-36 88-61z" style="fill:#000;fill-opacity:1;fill-rule:evenodd;stroke:none" transform="matrix(.13333 0 0 -.13333 0 2800)"/><path d="M4093 6685q44 198 168 328 183 200 437 333z" style="fill:#000;fill-opacity:1;fill-rule:evenodd;stroke:none" transform="matrix(.13333 0 0 -.13333 0 2800)"/><path d="M4141 6809q-5 126 175 296 53 46 169 121 235 117 349 190zm628-595a954 954 0 0 1 320-255q198-110 465-137 219-27 426 27 196 46 417 163-46-82-349-250-202-102-386-125-330-37-677 204z" style="fill:#000;fill-opacity:1;fill-rule:evenodd;stroke:none" transform="matrix(.13333 0 0 -.13333 0 2800)"/><path d="M5803 5753q-150 14-577 163-80 30-148 64l-281 153q-2-16 37-53 117-113 193-173 83-67 285-172z" style="fill:#000;fill-opacity:1;fill-rule:evenodd;stroke:none" transform="matrix(.13333 0 0 -.13333 0 2800)"/><path d="M5406 5812a3993 3993 0 0 1-550 308q-25-6 81-114 158-144 239-197zm4614 1311q-141 364-399 506a1657 1657 0 0 1-730 191q-466 8-840-145-327-130-711-523 272 163 518 242 467 153 692 153 159 6 318-14 66-5 194-36 285-90 470-214z" style="fill:#000;fill-opacity:1;fill-rule:evenodd;stroke:none" transform="matrix(.13333 0 0 -.13333 0 2800)"/><path d="M8641 7762q-282 15-609-103-238-86-535-307-397-291-765-1001 515 611 1242 1010 280 152 505 206 336 78 607 58z" style="fill:#000;fill-opacity:1;fill-rule:evenodd;stroke:none" transform="matrix(.13333 0 0 -.13333 0 2800)"/><path d="M7636 7414q-166-78-515-447-285-308-940-1163 241 156 503 393 215 207 542 587 235 231 288 277 133 129 377 269z" style="fill:#000;fill-opacity:1;fill-rule:evenodd;stroke:none" transform="matrix(.13333 0 0 -.13333 0 2800)"/><path d="M6773 6466q-565-568-1107-795-24-30 191 20 136 32 245 84 438 229 566 358z" style="fill:#000;fill-opacity:1;fill-rule:evenodd;stroke:none" transform="matrix(.13333 0 0 -.13333 0 2800)"/><path d="M5268 5690q327-130 492-114 198-25 501 156 201 96 447 403 368 543 333 566-419-509-713-713-474-301-728-283z" style="fill:#000;fill-opacity:1;fill-rule:evenodd;stroke:none" transform="matrix(.13333 0 0 -.13333 0 2800)"/><path d="M6057 5679q354 116 560 335 63 60 203 234 279 403 492 642 302 333 528 512z" style="fill:#000;fill-opacity:1;fill-rule:evenodd;stroke:none" transform="matrix(.13333 0 0 -.13333 0 2800)"/><path d="M6627 6101q103 174 909 952 134 154 555 422-75 5-667-427-379-354-504-571z" style="fill:#000;fill-opacity:1;fill-rule:evenodd;stroke:none" transform="matrix(.13333 0 0 -.13333 0 2800)"/><path d="M6668 6067q138 319 1070 1189a3583 3583 0 0 1-673-599z" style="fill:#000;fill-opacity:1;fill-rule:evenodd;stroke:none" transform="matrix(.13333 0 0 -.13333 0 2800)"/><path d="m6580 5999 657 768q239 252 398 405 2 24-186-113a3315 3315 0 0 1-304-272 4744 4744 0 0 1-471-559zm1449 1501q210 101 556 53a1823 1823 0 0 0 437-129q254-120 279-128-57 75-432 239-252 103-420 118z" style="fill:#000;fill-opacity:1;fill-rule:evenodd;stroke:none" transform="matrix(.13333 0 0 -.13333 0 2800)"/><path d="M7824 7352q68 66 286 124a1424 1424 0 0 0 774-1q48-12 162-59 18-6 173-86 18-9 18-6-89 89-332 180-240 84-444 105-420 39-630-139z" style="fill:#000;fill-opacity:1;fill-rule:evenodd;stroke:none" transform="matrix(.13333 0 0 -.13333 0 2800)"/><path d="M7852 7367a2515 2515 0 0 0 558 165q65 13 242 37 12 2 19 5 56 29-224 8-227-16-311-54z" style="fill:#000;fill-opacity:1;fill-rule:evenodd;stroke:none" transform="matrix(.13333 0 0 -.13333 0 2800)"/><path d="M7341 6926a3449 3449 0 0 0 657 472q16 10 52 13z" style="fill:#000;fill-opacity:1;fill-rule:evenodd;stroke:none" transform="matrix(.13333 0 0 -.13333 0 2800)"/><path d="M7310 6833q26 37 52 59 75 65 307 252 83 68 119 105 1 6-7 2l-52-26q-71-39-146-90-114-80-243-194z" style="fill:#000;fill-opacity:1;fill-rule:evenodd;stroke:none" transform="matrix(.13333 0 0 -.13333 0 2800)"/><path d="M7207 9774a907 907 0 0 0 233 367q21 42 541 411 12 2 11-11-4-30-16-95-12-70-63-243a704 704 0 0 0-126-257 355 355 0 0 0-234-137q-156-13-184-20z" style="fill:#e0e2e4;fill-opacity:1;fill-rule:evenodd;stroke:none" transform="matrix(.13333 0 0 -.13333 0 2800)"/><path d="M7971 10593q-167-22-386-276-114-116-293-494-9-20 27-20 140 13 217 35 102 23 248 119 199 124 359 439-324-662-621-784a808 808 0 0 0-394-46q-205 22-196 124-29 230 493 662z" style="fill:#000;fill-opacity:1;fill-rule:evenodd;stroke:none" transform="matrix(.13333 0 0 -.13333 0 2800)"/><path d="M7188 9612q35 261 301 585 189 221 625 476-405-143-786-599z" style="fill:#000;fill-opacity:1;fill-rule:evenodd;stroke:none" transform="matrix(.13333 0 0 -.13333 0 2800)"/><path d="M7185 9565q64 279 279 547 213 248 641 551-690-246-1046-1001z" style="fill:#000;fill-opacity:1;fill-rule:evenodd;stroke:none" transform="matrix(.13333 0 0 -.13333 0 2800)"/><path d="M8172 10639q-367-139-612-427a1520 1520 0 0 1-374-689q-21 87 45 291 75 217 179 373 175 273 513 442z" style="fill:#000;fill-opacity:1;fill-rule:evenodd;stroke:none" transform="matrix(.13333 0 0 -.13333 0 2800)"/></svg>